<svg id="Group_40229" data-name="Group 40229" xmlns="http://www.w3.org/2000/svg" xmlns:xlink="http://www.w3.org/1999/xlink" width="257.72" height="55.427" viewBox="0 0 257.72 55.427">
  <defs>
    <clipPath id="clip-path">
      <rect id="Rectangle_13665" data-name="Rectangle 13665" width="257.72" height="55.427" transform="translate(0 0)" fill="none"/>
    </clipPath>
  </defs>
  <g id="Group_40228" data-name="Group 40228" clip-path="url(#clip-path)">
    <path id="Path_60537" data-name="Path 60537" d="M20.91,55.31Q7.4,55.31,2.174,46.056C.734,43.513,0,39.958,0,35.38H8.6q0,11.769,12.641,11.767c7.822,0,11.758-2.5,11.758-7.509,0-3.346-2.695-5.733-8.058-7.189-5.088-1.238-10.124-2.51-15.142-3.813Q1.643,25.159,1.643,16.551q0-7.955,5.438-12.42C10.483,1.37,14.92,0,20.358,0Q40.512,0,40.506,18.4H31.8q0-10.239-11.107-10.235-10.127,0-10.13,7.4c0,2.833,1.421,4.607,4.257,5.339L30.17,24.5q11.758,2.833,11.751,14.483,0,8.391-6.532,12.744Q29.832,55.308,20.91,55.31" fill="#e30613"/>
    <path id="Path_60538" data-name="Path 60538" d="M79.964,27.328a26.851,26.851,0,0,1-5.984,1.96c-2.551.294-5.093.615-7.629.98a21.724,21.724,0,0,0-8.064,2.507A7.159,7.159,0,0,0,54.6,39.2q0,8.819,9.135,8.823a19.855,19.855,0,0,0,8.825-2.078A13.779,13.779,0,0,0,79.2,40.066c.437-.792.686-5.046.764-12.738M79.2,53.894V48.861a22.516,22.516,0,0,1-16.339,6.565c-5.138,0-9.284-1.277-12.408-3.813-3.414-2.677-5.117-6.574-5.117-11.653q0-13.066,14.816-16.113c.719-.15,3.813-.444,9.257-.872,4.272-.363,7.144-.947,8.6-1.736q2.3-1.2,2.3-5.123Q80.3,7.3,68.195,7.3q-10.662,0-12.073,10.118H47.95Q47.95.007,69.184,0q8.162,0,13.5,3.156A12.75,12.75,0,0,1,89,14.7v39.19Z" fill="#e30613"/>
    <path id="Path_60539" data-name="Path 60539" d="M164.035,53.894h-8.817V18.94q0-10.991-9.47-11a11.205,11.205,0,0,0-9.048,4.038,14.978,14.978,0,0,0-3.372,9.911v32H124.4V16.55a8.416,8.416,0,0,0-2.283-6.208,8.269,8.269,0,0,0-6.1-2.287,11.893,11.893,0,0,0-9.911,4.8,17.6,17.6,0,0,0-3.591,11V53.894H93.586V1.525h8.382v7.3a16.339,16.339,0,0,0,1.961-2.4Q108.834,0,117.757,0a15.769,15.769,0,0,1,8.389,1.957A16.213,16.213,0,0,1,131.8,8.382a50.694,50.694,0,0,1,6.871-6.1A16.509,16.509,0,0,1,147.5,0q8.247,0,12.62,5.114,3.912,4.793,3.916,13.289Z" fill="#e30613"/>
    <path id="Path_60540" data-name="Path 60540" d="M206.25,23.407c0-4.634-1.127-8.349-3.375-11.1q-3.7-4.358-10.562-4.362a14.439,14.439,0,0,0-10.783,4.476,15.356,15.356,0,0,0-4.257,10.99ZM215.5,30.6H177.273q0,17.2,14.713,17.208a15.644,15.644,0,0,0,9.149-2.729,10.456,10.456,0,0,0,4.686-7.623h9.036a19.853,19.853,0,0,1-7.732,13.172,24.287,24.287,0,0,1-14.923,4.8q-12.1,0-18.515-7.617-5.988-7.088-5.983-19.5t6.209-20.041Q180.671,0,192.955,0q12.2,0,17.87,9.695,4.68,7.725,4.679,20.907" fill="#e30613"/>
    <path id="Path_60541" data-name="Path 60541" d="M240.728,9.8v44.1h-9.035V9.8H214.926V1.415H257.72V9.8Z" fill="#e30613"/>
  </g>
</svg>
