<?xml version="1.0" encoding="UTF-8"?>
<svg id="Layer_2" data-name="Layer 2" xmlns="http://www.w3.org/2000/svg" viewBox="0 0 397.49 81.2">
  <defs>
    <style>
      .cls-1 {
        fill: #01a3e1;
      }

      .cls-1, .cls-2 {
        stroke-width: 0px;
      }

      .cls-2 {
        fill: #0247bb;
      }
    </style>
  </defs>
  <g id="Layer_1-2" data-name="Layer 1">
    <g>
      <g>
        <polygon class="cls-2" points="81.13 .04 121.71 .04 81.13 81.2 40.55 81.2 81.13 .04"/>
        <polygon class="cls-1" points="0 0 40.58 0 60.88 40.58 20.29 40.58 0 0"/>
      </g>
      <g>
        <path class="cls-2" d="M180.32,18.94l-14.9,24.66-14.82-24.66h-6.39l18.34,29.92v13.89h5.82v-13.89l18.35-29.92h-6.39Z"/>
        <path class="cls-2" d="M214.82,23.26c-1.26-3.01-2.89-4.82-6.08-4.82s-4.69,1.76-6.01,4.82l-16.65,39.5h6.14l15.02-36.74c.38-.88.75-2.13,1.5-2.13s1.19,1.24,1.57,2.13l14.95,36.74h6.14l-16.59-39.5Z"/>
        <path class="cls-2" d="M308.59,23.26c-1.26-3.01-2.89-4.82-6.08-4.82s-4.69,1.76-6.01,4.82l-16.65,39.5h6.14l15.02-36.74c.38-.88.75-2.13,1.5-2.13s1.19,1.24,1.57,2.13l14.95,36.74h6.14l-16.59-39.5Z"/>
        <path class="cls-2" d="M265.83,18.94h-20.09c-3.76,0-5.88,1.37-5.88,5.88v37.93h5.82v-16.7h20.15c8.84,0,11.21-5.08,11.21-13.71s-2.37-13.4-11.21-13.4ZM263.76,41.28h-18.09v-14.71c0-2,.31-2.88,2.81-2.88h15.28c6.08,0,7.2,3.01,7.2,8.64s-1.01,8.94-7.2,8.94Z"/>
        <path class="cls-2" d="M342.2,58c-2.14,0-2.76-.69-2.76-2.63V18.94h-5.82v38.56c0,4,2.37,5.25,5.57,5.25h27.29v-4.76h-24.28Z"/>
        <path class="cls-2" d="M375.56,18.94v43.81h5.83V18.94h-5.83Z"/>
      </g>
      <g>
        <path class="cls-2" d="M391.92,24.51h.16l1.48,1.95h1.25l-1.64-2.09c.15-.05.29-.12.42-.2.21-.14.37-.33.49-.55.11-.22.17-.48.17-.76,0-.32-.07-.61-.22-.84-.15-.24-.36-.42-.62-.55-.26-.12-.56-.18-.91-.18h-1.55v5.18h.98v-1.95ZM393.13,23.27c-.07.11-.17.19-.3.25-.14.06-.31.1-.51.1h-.41v-1.46h.41c.3,0,.53.07.68.2.15.12.22.3.22.52,0,.16-.03.29-.1.4Z"/>
        <path class="cls-2" d="M392.56,18.94c-2.72,0-4.93,2.21-4.93,4.93s2.21,4.93,4.93,4.93,4.93-2.21,4.93-4.93-2.21-4.93-4.93-4.93ZM392.56,19.86c2.21,0,4.01,1.8,4.01,4.01s-1.8,4.01-4.01,4.01-4.01-1.8-4.01-4.01,1.8-4.01,4.01-4.01Z"/>
      </g>
    </g>
  </g>
</svg>