<?xml version="1.0" encoding="utf-8"?>
<!-- Generator: Adobe Illustrator 29.2.1, SVG Export Plug-In . SVG Version: 9.03 Build 55982)  -->
<svg version="1.1" baseProfile="tiny" id="Layer_1" xmlns="http://www.w3.org/2000/svg" xmlns:xlink="http://www.w3.org/1999/xlink"
	 x="0px" y="0px" viewBox="0 0 280 200" overflow="visible" xml:space="preserve">
<polygon fill-rule="evenodd" fill="#231F20" points="1.7,61 68.4,61 115.1,95.2 161.7,95.2 208.4,61 275.6,61 176.2,133.3 
	138.6,99.5 100.3,133.2 "/>
<g>
	<path fill-rule="evenodd" fill="#231F20" d="M7.5,171.5l0,5.9h21.8c5,0,7.4-2,7.2-5.9v-3.8c-0.1-4.3-2.6-6.2-7.2-5.9H15.7
		c-1.2,0-1.5-0.9-1.5-2.2c0.1-1.5,0.6-1.8,3.4-1.8h17.9v-5.7H13.2c-4-0.1-5.8,1.4-5.7,4.8v4.9c0,3.5,1.3,5.6,6.4,5.7h11.8
		c3.3,0,4.4,0.1,4.3,2.1c0,1.7-1.3,1.9-4.3,1.9L7.5,171.5z"/>
	<polygon fill-rule="evenodd" fill="#231F20" points="36.4,152.2 36.4,157.8 46.5,157.8 46.5,177.5 53,177.5 53,158.2 64,158.2 
		64,152.2 	"/>
	<path fill-rule="evenodd" fill="#231F20" d="M63.8,177.5h6.3V161c0-2,1.2-3,3.2-2.9h12.2c1.9,0,3,0.9,2.9,2.7v3.5v0.2H73.7v5.3
		h14.6v7.7h6.6v-18.4c-0.3-4.8-2.9-6.9-9.2-6.9H72c-5.3,0.2-8.2,2.6-8.1,7.2L63.8,177.5z"/>
	<path fill-rule="evenodd" fill="#231F20" d="M97,177.5h6.7v-19.3h18.2v3.3c0,1.6-0.6,2.3-2.6,2.3h-12l13.8,13.6h8.8l-8.2-8
		c5.4,0.1,7-3.4,7-8.9c-0.1-5.8-2.3-8.4-7.9-8.4H97L97,177.5z"/>
	<g>
		<path fill-rule="evenodd" fill="#231F20" d="M128.4,152.1h6.9l3.5,15.9l5.9-15.9h6.9l5.5,15.7l4-15.7h7.1l-7,25.4h-5.9
			c-1.6,0-2.6-1.6-3.2-3.6l-4.1-12.2l-4.9,13c-0.9,2-2.2,2.8-4.2,2.8h-4.4L128.4,152.1z"/>
	</g>
	<path fill-rule="evenodd" fill="#231F20" d="M269.6,163.1c-0.1-7.9-2.7-11-9.1-11h-21.2v25.5h22.6c5.3,0.4,7.9-2.8,7.8-9.6
		L269.6,163.1z M260.2,171.9h-14.3v-13.4l13.8,0c2.2,0,2.8,1,2.8,3v7C262.8,170.9,262,171.9,260.2,171.9z"/>
	<path fill-rule="evenodd" fill="#231F20" d="M236.2,157.8c-0.3-3.7-2.9-5.6-7.3-5.6c-5-0.3-12.5-0.3-17.8,0c-5-0.1-7.5,1.7-7.5,5.6
		c-0.4,4.3-0.4,8.9,0,13.7c0.5,5.3,1.6,6.2,6.5,6c6.2,0.3,12.8,0.3,19.7,0c3.2,0,6.4-0.7,6.4-6C236.6,167.3,236.6,162.4,236.2,157.8
		z M227.1,171.9h-13.3c-2.6-0.1-3.4-0.7-3.5-2.7l0.2-9.2c0.1-1.7,0.9-2.2,3-2.2h13.1c1.7,0,2.7,0.7,2.8,2.3l0.1,8.9
		C229.7,170.7,229.5,171.9,227.1,171.9z"/>
	<path fill-rule="evenodd" fill="#231F20" d="M200.7,157.8c-0.3-3.7-2.9-5.6-7.3-5.6c-5-0.3-12.5-0.3-17.8,0c-5-0.1-7.5,1.7-7.5,5.6
		c-0.4,4.3-0.4,8.9,0,13.7c0.5,5.3,1.6,6.2,6.5,6c6.2,0.3,12.8,0.3,19.7,0c3.2,0,6.4-0.7,6.4-6C201.1,167.3,201.1,162.4,200.7,157.8
		z M191.5,171.9h-13.3c-2.6-0.1-3.4-0.7-3.5-2.7l0.2-9.2c0.1-1.7,0.9-2.2,3-2.2h13.1c1.7,0,2.7,0.7,2.8,2.3l0.1,8.9
		C194.1,170.7,194,171.9,191.5,171.9z"/>
</g>
<polygon fill-rule="evenodd" fill="#231F20" points="176.2,133.3 138.2,105.7 100.3,133.2 114.7,88.8 76.7,61 124.9,61 138.2,16.4 
	152.7,61 199.6,61 161.7,88.6 "/>
<polygon fill="#00A551" points="6.7,62.7 68,62.7 112.6,95.4 100.9,131.3 "/>
<polygon fill="#00A551" points="270.2,62.7 208.9,62.7 164.8,95.1 176.2,131.1 "/>
<path fill-rule="evenodd" fill="none" stroke="#231F20" stroke-width="1.1383" stroke-miterlimit="3.8637" d="M101.2,134"/>
<path fill-rule="evenodd" fill="#231F20" d="M272.3,150c0.5,0,0.9,0.1,1.1,0.3c0.2,0.2,0.3,0.4,0.3,0.7c0,0.2-0.1,0.4-0.2,0.5
	c-0.1,0.2-0.3,0.3-0.5,0.3c0.1,0,0.1,0.1,0.2,0.2c0.1,0.1,0.1,0.2,0.2,0.3l0.6,1.3h-0.5l-0.5-1.1c-0.1-0.2-0.2-0.4-0.3-0.4
	c-0.1-0.1-0.2-0.1-0.4-0.1h-0.4v1.6h-0.5V150H272.3z M271.9,151.6h0.3c0.4,0,0.6-0.1,0.8-0.2c0.2-0.1,0.2-0.3,0.2-0.5
	c0-0.2-0.1-0.4-0.3-0.5c-0.2-0.1-0.4-0.1-0.7-0.1h-0.3V151.6z M275.8,151.8c0,0.9-0.3,1.7-1,2.3c-0.6,0.6-1.4,1-2.3,1
	c-0.9,0-1.7-0.3-2.3-0.9c-0.6-0.6-1-1.4-1-2.3c0-0.9,0.3-1.7,1-2.3c0.6-0.7,1.4-1,2.3-1c0.9,0,1.7,0.3,2.3,1
	C275.5,150.2,275.8,150.9,275.8,151.8z M269.7,151.8c0,0.8,0.3,1.5,0.8,2.1c0.6,0.6,1.3,0.9,2.1,0.9c0.8,0,1.5-0.3,2-0.9
	c0.6-0.6,0.9-1.3,0.9-2.1c0-0.8-0.3-1.5-0.9-2.1c-0.6-0.6-1.2-0.9-2-0.9c-0.8,0-1.5,0.3-2.1,0.9C269.9,150.3,269.7,151,269.7,151.8z
	"/>
</svg>
